<svg width="20" height="20" viewBox="0 0 20 20" fill="none" xmlns="http://www.w3.org/2000/svg">
<g clip-path="url(#clip0_405_5217)">
<path d="M6.93408 1.66669V5.05224" stroke="#98A2B3" stroke-width="1.5" stroke-linecap="round"/>
<path d="M13.0569 1.66669V5.05224" stroke="#98A2B3" stroke-width="1.5" stroke-linecap="round"/>
<path d="M1.93668 14.6999C2.15688 16.6191 3.75361 18.1429 5.72809 18.2358C7.09281 18.2999 8.48694 18.3334 10 18.3334C11.5131 18.3334 12.9072 18.2999 14.272 18.2358C16.2464 18.1429 17.8431 16.6191 18.0634 14.6999C18.2116 13.4075 18.3333 12.0825 18.3333 10.7327C18.3333 9.3829 18.2116 8.05787 18.0634 6.76546C17.8431 4.84629 16.2464 3.32251 14.272 3.22961C12.9072 3.16539 11.5131 3.13202 10 3.13202C8.48694 3.13202 7.09281 3.16539 5.72809 3.22961C3.75361 3.32251 2.15688 4.84629 1.93668 6.76546C1.7884 8.05787 1.66675 9.3829 1.66675 10.7327C1.66675 12.0825 1.7884 13.4075 1.93668 14.6999Z" stroke="#98A2B3" stroke-width="1.5"/>
<path d="M2.06567 7.99988H18.0167" stroke="#98A2B3" stroke-width="1.5"/>
</g>
<defs>
<clipPath id="clip0_405_5217">
<rect width="20" height="20" fill="white"/>
</clipPath>
</defs>
</svg>
