<svg width="49" height="48" viewBox="0 0 49 48" fill="none" xmlns="http://www.w3.org/2000/svg">
<path d="M24.1113 2C15.2887 2 8.11133 8.98452 8.11133 17.5701C8.11133 21.9505 9.98021 25.9151 12.9835 28.7457V43.9301C12.9835 45.5029 14.7206 46.5069 16.145 45.7329L23.7841 41.5613C23.9859 41.4516 24.2368 41.4516 24.4386 41.5613L32.0777 45.7329C33.4921 46.506 35.2392 45.5099 35.2392 43.9301V28.7457C38.2424 25.9151 40.1113 21.9505 40.1113 17.5701C40.1113 8.98452 32.934 2 24.1113 2ZM33.7848 43.9301C33.7848 44.4272 33.2367 44.7421 32.7885 44.498L25.1494 40.3264C24.5095 39.9779 23.7132 39.9779 23.0733 40.3264L15.4341 44.498C14.9887 44.7404 14.4379 44.4308 14.4379 43.9301V29.9628C20.1509 34.199 28.0654 34.2034 33.7848 29.9628V43.9301ZM24.1113 31.7249C16.0777 31.7249 9.56571 25.3605 9.56571 17.5701C9.56571 9.77974 16.0904 3.4153 24.1113 3.4153C32.1322 3.4153 38.6569 9.76471 38.6569 17.5701C38.6569 25.3755 32.1322 31.7249 24.1113 31.7249Z" fill="#10975B" stroke="#10975B" stroke-width="0.5"/>
<path d="M31.4223 14.0328L27.9978 13.5443C27.7439 13.5078 27.5241 13.3503 27.4097 13.1243L25.8786 10.0779C25.1658 8.64728 23.0682 8.63415 22.3442 10.0779L20.8131 13.1243C20.6987 13.3518 20.479 13.5078 20.2235 13.5443L16.8005 14.0328C15.1862 14.2625 14.5387 16.2137 15.7075 17.3329L18.186 19.7056C18.3702 19.882 18.4548 20.1358 18.4103 20.3851C17.9343 23.1078 18.2454 21.3308 17.8252 23.7334C17.5497 25.312 19.2397 26.5202 20.6839 25.7736L23.7476 24.1928C23.9748 24.0746 24.248 24.0746 24.4752 24.1928L27.5389 25.7736C28.9757 26.5187 30.6739 25.3164 30.3977 23.7334C29.9937 21.4234 30.264 22.9663 29.8125 20.3851C29.768 20.1358 29.8526 19.882 30.0368 19.7056L32.5153 17.3329C33.6833 16.2144 33.0373 14.2625 31.4223 14.0328ZM31.6852 16.4973L29.2081 18.87C28.7433 19.3147 28.5309 19.9549 28.6408 20.582C28.9089 22.1125 28.6713 20.7548 29.2259 23.9317C29.3358 24.5559 28.6713 25.0386 28.0914 24.7411L25.0277 23.1603C24.4545 22.8628 23.7684 22.8628 23.1951 23.1603L20.1315 24.7411C19.5552 25.0378 18.8862 24.5573 18.9969 23.9317C19.5656 20.6739 19.3087 22.1402 19.582 20.582C19.6919 19.9549 19.4795 19.3147 19.0147 18.87L16.5376 16.4973C16.0706 16.0511 16.329 15.2782 16.9712 15.1878L20.3958 14.6992C21.0373 14.6074 21.5913 14.2122 21.8779 13.6405L23.4105 10.5941C23.6956 10.0217 24.5272 10.021 24.8124 10.5941L26.3449 13.6405C26.6315 14.2122 27.1855 14.6074 27.827 14.6992L31.2516 15.1878C31.8938 15.2782 32.1522 16.0511 31.6852 16.4973Z" fill="#FDB813" stroke="#FDB813" stroke-width="0.5"/>
<path d="M31.111 38.283C31.5128 38.283 31.8382 37.9664 31.8382 37.5754V34.0371C31.8382 33.6479 31.5128 33.3295 31.111 33.3295C30.7092 33.3295 30.3838 33.6479 30.3838 34.0371V37.5754C30.3838 37.9664 30.7092 38.283 31.111 38.283Z" fill="#FDB813" stroke="#FDB813" stroke-width="0.5"/>
<path d="M31.111 41.5843C31.5128 41.5843 31.8382 41.2676 31.8382 40.8766V40.2291C31.8382 39.8399 31.5128 39.5215 31.111 39.5215C30.7092 39.5215 30.3838 39.8399 30.3838 40.2291V40.8766C30.3838 41.2676 30.7092 41.5843 31.111 41.5843Z" fill="#FDB813" stroke="#FDB813" stroke-width="0.5"/>
</svg>
