<svg width="49" height="48" viewBox="0 0 49 48" fill="none" xmlns="http://www.w3.org/2000/svg">
<path d="M35.1665 24.9268H13.6665V39.8622H35.1665V24.9268Z" stroke="#10975B" stroke-width="2" stroke-miterlimit="10"/>
<path d="M5.93994 40H43.3787" stroke="#10975B" stroke-width="2" stroke-miterlimit="10" stroke-linecap="round"/>
<path d="M4.6665 17.0869C4.6665 19.842 6.90588 22.0664 9.67293 22.0664C12.44 22.0664 14.6794 19.842 14.6794 17.0869" stroke="#10975B" stroke-width="2" stroke-miterlimit="10"/>
<path d="M14.6665 17.0869C14.6665 19.842 16.9059 22.0664 19.6601 22.0664C22.4271 22.0664 24.6665 19.842 24.6665 17.0869" stroke="#10975B" stroke-width="2" stroke-miterlimit="10"/>
<path d="M24.6665 17.0869C24.6665 19.842 26.9059 22.0664 29.6601 22.0664C32.4271 22.0664 34.6665 19.842 34.6665 17.0869" stroke="#10975B" stroke-width="2" stroke-miterlimit="10"/>
<path d="M34.6665 17.0869C34.6665 19.842 36.9059 22.0664 39.6729 22.0664C42.44 22.0664 44.6665 19.842 44.6665 17.0869" stroke="#10975B" stroke-width="2" stroke-miterlimit="10"/>
<path d="M42.2212 21.3711V39.9998" stroke="#10975B" stroke-width="2" stroke-miterlimit="10"/>
<path d="M7.11182 21.3711V39.9998" stroke="#10975B" stroke-width="2" stroke-miterlimit="10"/>
<path d="M44.6664 17.0869H4.6665L10.0075 8H39.2224L44.6664 17.0869Z" stroke="url(#paint0_linear_311_627)" stroke-width="2" stroke-miterlimit="10" stroke-linejoin="round"/>
<path d="M24.6665 24.9268V39.8622" stroke="#10975B" stroke-width="2"/>
<defs>
<linearGradient id="paint0_linear_311_627" x1="4.6665" y1="12.5434" x2="44.6664" y2="12.5434" gradientUnits="userSpaceOnUse">
<stop stop-color="#FFCB05"/>
<stop offset="1" stop-color="#FCAF17"/>
</linearGradient>
</defs>
</svg>
