<svg width="48" height="48" viewBox="0 0 48 48" fill="none" xmlns="http://www.w3.org/2000/svg">
<path d="M41 24L7 24" stroke="#FDB813" stroke-width="1.5" stroke-linecap="round"/>
<path d="M6.518 19V18.048L10.508 14.198C10.8627 13.862 11.124 13.568 11.292 13.316C11.4693 13.0547 11.586 12.8167 11.642 12.602C11.7073 12.378 11.74 12.1633 11.74 11.958C11.74 11.454 11.5627 11.0573 11.208 10.768C10.8533 10.4787 10.3353 10.334 9.654 10.334C9.13133 10.334 8.66 10.4227 8.24 10.6C7.82 10.768 7.456 11.034 7.148 11.398L6.196 10.572C6.56933 10.096 7.06867 9.732 7.694 9.48C8.32867 9.21867 9.024 9.088 9.78 9.088C10.4613 9.088 11.054 9.2 11.558 9.424C12.062 9.63867 12.4493 9.95133 12.72 10.362C13 10.7727 13.14 11.258 13.14 11.818C13.14 12.1353 13.098 12.448 13.014 12.756C12.93 13.064 12.7713 13.3907 12.538 13.736C12.3047 14.0813 11.9687 14.4687 11.53 14.898L7.974 18.328L7.638 17.782H13.56V19H6.518ZM18.7014 19.112C17.9361 19.112 17.2501 18.916 16.6434 18.524C16.0461 18.132 15.5701 17.5627 15.2154 16.816C14.8701 16.0693 14.6974 15.164 14.6974 14.1C14.6974 13.036 14.8701 12.1307 15.2154 11.384C15.5701 10.6373 16.0461 10.068 16.6434 9.676C17.2501 9.284 17.9361 9.088 18.7014 9.088C19.4574 9.088 20.1387 9.284 20.7454 9.676C21.3521 10.068 21.8281 10.6373 22.1734 11.384C22.5187 12.1307 22.6914 13.036 22.6914 14.1C22.6914 15.164 22.5187 16.0693 22.1734 16.816C21.8281 17.5627 21.3521 18.132 20.7454 18.524C20.1387 18.916 19.4574 19.112 18.7014 19.112ZM18.7014 17.866C19.2147 17.866 19.6627 17.726 20.0454 17.446C20.4374 17.166 20.7407 16.746 20.9554 16.186C21.1794 15.626 21.2914 14.9307 21.2914 14.1C21.2914 13.2693 21.1794 12.574 20.9554 12.014C20.7407 11.454 20.4374 11.034 20.0454 10.754C19.6627 10.474 19.2147 10.334 18.7014 10.334C18.1881 10.334 17.7354 10.474 17.3434 10.754C16.9514 11.034 16.6434 11.454 16.4194 12.014C16.2047 12.574 16.0974 13.2693 16.0974 14.1C16.0974 14.9307 16.2047 15.626 16.4194 16.186C16.6434 16.746 16.9514 17.166 17.3434 17.446C17.7354 17.726 18.1881 17.866 18.7014 17.866ZM28.0393 19.112C27.2739 19.112 26.5879 18.916 25.9813 18.524C25.3839 18.132 24.9079 17.5627 24.5533 16.816C24.2079 16.0693 24.0353 15.164 24.0353 14.1C24.0353 13.036 24.2079 12.1307 24.5533 11.384C24.9079 10.6373 25.3839 10.068 25.9813 9.676C26.5879 9.284 27.2739 9.088 28.0393 9.088C28.7953 9.088 29.4766 9.284 30.0833 9.676C30.6899 10.068 31.1659 10.6373 31.5113 11.384C31.8566 12.1307 32.0293 13.036 32.0293 14.1C32.0293 15.164 31.8566 16.0693 31.5113 16.816C31.1659 17.5627 30.6899 18.132 30.0833 18.524C29.4766 18.916 28.7953 19.112 28.0393 19.112ZM28.0393 17.866C28.5526 17.866 29.0006 17.726 29.3833 17.446C29.7753 17.166 30.0786 16.746 30.2933 16.186C30.5173 15.626 30.6293 14.9307 30.6293 14.1C30.6293 13.2693 30.5173 12.574 30.2933 12.014C30.0786 11.454 29.7753 11.034 29.3833 10.754C29.0006 10.474 28.5526 10.334 28.0393 10.334C27.5259 10.334 27.0733 10.474 26.6813 10.754C26.2893 11.034 25.9813 11.454 25.7573 12.014C25.5426 12.574 25.4353 13.2693 25.4353 14.1C25.4353 14.9307 25.5426 15.626 25.7573 16.186C25.9813 16.746 26.2893 17.166 26.6813 17.446C27.0733 17.726 27.5259 17.866 28.0393 17.866ZM35.0672 17.208L35.0952 15.486L39.3652 11.58H40.9892L37.7132 14.8L36.9852 15.416L35.0672 17.208ZM33.9752 19V8.612H35.3192V19H33.9752ZM39.6452 19L36.7332 15.388L37.6012 14.31L41.2972 19H39.6452Z" fill="#10975B"/>
<path d="M10.3347 39V29.76L10.9367 30.418H8.12274V29.2H11.7207V39H10.3347ZM25.4501 29.2H26.8501V39H25.4501V29.2ZM19.8221 39H18.4221V29.2H19.8221V39ZM25.5761 34.632H19.6821V33.414H25.5761V34.632ZM29.8955 39V29.2H34.0255C35.0708 29.2 35.9901 29.4053 36.7835 29.816C37.5861 30.2267 38.2068 30.8007 38.6455 31.538C39.0935 32.2753 39.3175 33.1293 39.3175 34.1C39.3175 35.0707 39.0935 35.9247 38.6455 36.662C38.2068 37.3993 37.5861 37.9733 36.7835 38.384C35.9901 38.7947 35.0708 39 34.0255 39H29.8955ZM31.2955 37.782H33.9415C34.7535 37.782 35.4535 37.628 36.0415 37.32C36.6388 37.012 37.1008 36.5827 37.4275 36.032C37.7541 35.472 37.9175 34.828 37.9175 34.1C37.9175 33.3627 37.7541 32.7187 37.4275 32.168C37.1008 31.6173 36.6388 31.188 36.0415 30.88C35.4535 30.572 34.7535 30.418 33.9415 30.418H31.2955V37.782ZM28.4535 34.562V33.456H34.0535V34.562H28.4535Z" fill="#10975B"/>
</svg>
