<svg width="49" height="48" viewBox="0 0 49 48" fill="none" xmlns="http://www.w3.org/2000/svg">
<path d="M25.5085 27.0278C28.1384 27.0278 30.2703 24.8928 30.2703 22.2592C30.2703 19.6257 28.1384 17.4907 25.5085 17.4907C22.8785 17.4907 20.7466 19.6257 20.7466 22.2592C20.7466 24.8928 22.8785 27.0278 25.5085 27.0278Z" stroke="#10975B" stroke-width="2" stroke-miterlimit="10" stroke-linecap="round" stroke-linejoin="round"/>
<path d="M37.8892 17.4907V27.0278" stroke="#10975B" stroke-width="2" stroke-miterlimit="10" stroke-linecap="round" stroke-linejoin="round"/>
<path d="M6.46094 28.363V16.537C6.46094 9.86111 10.2704 7 15.9847 7H35.0322C40.7465 7 44.556 9.86111 44.556 16.537V27.9815C44.556 34.6574 40.7465 37.5185 35.0322 37.5185H18.8418" stroke="#10975B" stroke-width="2" stroke-miterlimit="10" stroke-linecap="round" stroke-linejoin="round"/>
<path d="M12.1747 41.3332C16.3825 41.3332 19.7937 37.9173 19.7937 33.7036C19.7937 29.4899 16.3825 26.074 12.1747 26.074C7.96681 26.074 4.55566 29.4899 4.55566 33.7036C4.55566 37.9173 7.96681 41.3332 12.1747 41.3332Z" stroke="#FDB813" stroke-width="2" stroke-miterlimit="10" stroke-linecap="round" stroke-linejoin="round"/>
<path d="M12.651 31.3193V33.0932C12.651 33.7608 12.3081 34.3902 11.7176 34.7336L10.27 35.611" stroke="#FDB813" stroke-width="2" stroke-miterlimit="10" stroke-linecap="round" stroke-linejoin="round"/>
</svg>
