<svg width="64" height="64" viewBox="0 0 64 64" fill="none" xmlns="http://www.w3.org/2000/svg">
<path d="M38.5068 50.8L42.5602 54.8533L50.6668 46.7467" stroke="#FDB813" stroke-width="2.5" stroke-linecap="round" stroke-linejoin="round"/>
<path d="M32.4264 28.9867C32.1598 28.96 31.8398 28.96 31.5464 28.9867C25.1998 28.7733 20.1598 23.5733 20.1598 17.1733C20.1331 10.64 25.4398 5.33333 31.9731 5.33333C38.5064 5.33333 43.8131 10.64 43.8131 17.1733C43.8131 23.5733 38.7464 28.7733 32.4264 28.9867Z" stroke="#10975B" stroke-width="2.5" stroke-linecap="round" stroke-linejoin="round"/>
<path d="M31.9734 58.16C27.1201 58.16 22.2934 56.9333 18.6134 54.48C12.1601 50.16 12.1601 43.12 18.6134 38.8267C25.9468 33.92 37.9734 33.92 45.3068 38.8267" stroke="#10975B" stroke-width="2.5" stroke-linecap="round" stroke-linejoin="round"/>
</svg>
