<svg width="56" height="56" viewBox="0 0 56 56" fill="none" xmlns="http://www.w3.org/2000/svg">
<path d="M31.9375 53.8125C31.9375 48.2838 36.4195 43.75 41.948 43.75H43.802C49.3305 43.75 53.8125 48.2838 53.8125 53.8125" stroke="#FDB813" stroke-width="2.5" stroke-miterlimit="10" stroke-linecap="round" stroke-linejoin="round"/>
<path d="M49.875 28.9844C49.875 32.9107 46.692 36.0937 42.7656 36.0937C38.8393 36.0937 35.6562 32.9107 35.6562 28.9844C35.6562 25.058 38.8393 21.875 42.7656 21.875C46.692 21.875 49.875 25.058 49.875 28.9844Z" stroke="#FDB813" stroke-width="2.5" stroke-miterlimit="10" stroke-linecap="round" stroke-linejoin="round"/>
<path d="M44.1898 13.1228C44.1898 7.0834 39.294 2.18755 33.2546 2.18755H33.2523H13.1228C7.08345 2.18755 2.1875 7.0834 2.1875 13.1228V42.8772C2.1875 48.9166 7.08345 53.8126 13.1228 53.8126H23.1875" stroke="#10975B" stroke-width="2.5" stroke-miterlimit="10" stroke-linecap="round" stroke-linejoin="round"/>
<path d="M14.9844 24.8281H26.7969" stroke="#10975B" stroke-width="2.5" stroke-miterlimit="10" stroke-linecap="round" stroke-linejoin="round"/>
<path d="M14.9844 16.4062H31.1719" stroke="#10975B" stroke-width="2.5" stroke-miterlimit="10" stroke-linecap="round" stroke-linejoin="round"/>
<path d="M14.9844 41.5625H26.7969" stroke="#10975B" stroke-width="2.5" stroke-miterlimit="10" stroke-linecap="round" stroke-linejoin="round"/>
<path d="M14.9844 33.1406H26.7969" stroke="#10975B" stroke-width="2.5" stroke-miterlimit="10" stroke-linecap="round" stroke-linejoin="round"/>
</svg>
