<svg width="64" height="64" viewBox="0 0 64 64" fill="none" xmlns="http://www.w3.org/2000/svg">
<circle cx="32.0002" cy="42.6667" r="18.6667" stroke="#10975B" stroke-width="2.5"/>
<path d="M30.7 50.6667C29.4167 50.6667 28.2667 50.3838 27.25 49.8182C26.25 49.2525 25.4583 48.4623 24.875 47.4474C24.2917 46.4326 24 45.2513 24 43.9037C24 42.5562 24.2917 41.3832 24.875 40.385C25.4583 39.3702 26.25 38.5799 27.25 38.0143C28.2667 37.4486 29.4167 37.1658 30.7 37.1658C31.8167 37.1658 32.825 37.4153 33.725 37.9144C34.625 38.4135 35.3417 39.1622 35.875 40.1604C36.425 41.1586 36.7 42.4064 36.7 43.9037C36.7 45.4011 36.4333 46.6488 35.9 47.6471C35.3833 48.6453 34.675 49.4023 33.775 49.918C32.875 50.4171 31.85 50.6667 30.7 50.6667ZM30.9 48.5704C31.7333 48.5704 32.4833 48.3791 33.15 47.9964C33.8333 47.6138 34.3667 47.0731 34.75 46.3743C35.15 45.6589 35.35 44.8354 35.35 43.9037C35.35 42.9554 35.15 42.1402 34.75 41.4581C34.3667 40.7594 33.8333 40.2187 33.15 39.836C32.4833 39.4534 31.7333 39.262 30.9 39.262C30.05 39.262 29.2917 39.4534 28.625 39.836C27.9583 40.2187 27.425 40.7594 27.025 41.4581C26.625 42.1402 26.425 42.9554 26.425 43.9037C26.425 44.8354 26.625 45.6589 27.025 46.3743C27.425 47.0731 27.9583 47.6138 28.625 47.9964C29.2917 48.3791 30.05 48.5704 30.9 48.5704ZM35.425 50.5169V46.9483L35.575 43.8788L35.325 40.8093V32H37.725V50.5169H35.425ZM30.1 35.5187V33.8217H40V35.5187H30.1Z" fill="#FDB813"/>
<path d="M32 5.33333L32 16" stroke="#FDB813" stroke-width="2.5" stroke-linecap="round"/>
<path d="M45.3335 13.3333L45.3335 21.3333" stroke="#FDB813" stroke-width="2.5" stroke-linecap="round"/>
<path d="M18.667 13.3333L18.667 21.3333" stroke="#FDB813" stroke-width="2.5" stroke-linecap="round"/>
</svg>
