<svg width="124" height="154" viewBox="0 0 124 154" fill="none" xmlns="http://www.w3.org/2000/svg">
<path d="M62.0008 83.3721C85.1479 83.3721 103.705 64.8147 103.705 41.6823H99.7051C99.7051 62.6047 82.9396 79.3721 62.0008 79.3721V83.3721ZM20.2965 41.6823C20.2965 64.8149 38.8615 83.3721 62.0008 83.3721V79.3721C41.0693 79.3721 24.2965 62.6044 24.2965 41.6823H20.2965ZM62.0008 0C38.862 0 20.2965 18.5492 20.2965 41.6823H24.2965C24.2965 20.7607 41.0688 4 62.0008 4V0ZM103.705 41.6823C103.705 18.5494 85.1474 0 62.0008 0V4C82.9401 4 99.7051 20.7604 99.7051 41.6823H103.705ZM0 126.313C0 131.912 1.90348 136.55 5.32563 140.284C8.70648 143.973 13.4849 146.692 19.1325 148.692C30.401 152.682 45.6846 154 61.9991 154V150C45.7818 150 31.0659 148.674 20.4678 144.921C15.1821 143.049 11.0604 140.621 8.27455 137.581C5.52994 134.586 4 130.913 4 126.313H0ZM61.9991 98.8053C45.7745 98.8053 30.4931 100.076 19.2054 104.018C13.5486 105.994 8.75266 108.688 5.35616 112.36C1.91707 116.078 0 120.708 0 126.313H4C4 121.714 5.53792 118.054 8.29254 115.076C11.0898 112.052 15.2263 109.645 20.5243 107.794C31.1464 104.085 45.8645 102.805 61.9991 102.805V98.8053ZM123.998 126.493C123.998 120.894 122.095 116.256 118.674 112.522C115.293 108.833 110.516 106.114 104.869 104.114C93.6009 100.123 78.3173 98.8053 61.9991 98.8053V102.805C78.2201 102.805 92.936 104.131 103.533 107.884C108.818 109.756 112.939 112.184 115.725 115.224C118.469 118.219 119.998 121.892 119.998 126.493H123.998ZM61.9991 154C78.2237 154 93.5051 152.729 104.793 148.787C110.45 146.812 115.246 144.117 118.642 140.446C122.081 136.728 123.998 132.097 123.998 126.493H119.998C119.998 131.091 118.46 134.751 115.706 137.729C112.908 140.753 108.772 143.161 103.474 145.011C92.8518 148.721 78.1336 150 61.9991 150V154Z" fill="#CBDBE8"/>
</svg>
