<svg width="74" height="31" viewBox="0 0 74 31" fill="none" xmlns="http://www.w3.org/2000/svg">
<path d="M47.9016 15.0009V14.9267C50.0768 13.809 51.0916 11.8 51.0916 9.71817C51.0916 6.8167 48.9147 3.39429 42.7249 3.39429C37.5854 3.39429 34.0579 6.14762 34.0579 10.3512C34.0579 12.4691 34.8464 14.4044 37.0601 15.6321L37.0974 15.7072C34.5477 16.8219 32.9338 18.7199 32.9338 21.6222C32.9338 24.7451 35.6723 28.3899 42.3869 28.3899C48.4643 28.3899 52.2157 25.3779 52.2157 20.9136C52.2157 17.7156 50.0027 15.7803 47.9016 15.0009ZM42.4697 7.93675C44.1938 7.93675 44.8501 9.15603 44.8501 10.4568C44.8501 11.6469 44.1181 12.8782 43.1434 13.1021C41.5298 12.5809 39.7357 11.4737 39.7357 10.2087C39.7356 8.9435 40.8555 7.93675 42.4697 7.93675ZM42.6499 23.8536C40.9618 23.8536 39.7357 22.4605 39.7357 20.9713C39.7357 19.4832 40.5435 18.0151 42.0076 17.6432C43.7703 18.0901 45.4137 19.6087 45.4137 21.358C45.4137 22.7711 44.2247 23.8536 42.6499 23.8536Z" fill="white"/>
<path d="M54.499 21.6221C54.499 24.7449 57.2383 28.3897 63.9533 28.3897C70.0298 28.3897 73.7811 25.3777 73.7811 20.9134C73.7811 17.7156 71.5684 15.7803 69.4668 15.0009V14.9267C71.6429 13.809 72.6581 11.8 72.6581 9.71817C72.6581 6.8167 70.4809 3.39429 64.2901 3.39429C59.1517 3.39429 55.6228 6.14762 55.6228 10.3512C55.6228 12.4691 56.4133 14.4044 58.6259 15.6321L58.6642 15.7072C56.1132 16.8217 54.499 18.7198 54.499 21.6221ZM64.0344 7.93666C65.7604 7.93666 66.415 9.15594 66.415 10.4567C66.415 11.6468 65.6837 12.8781 64.7087 13.102C63.0945 12.5808 61.3017 11.4736 61.3017 10.2086C61.3016 8.94341 62.4225 7.93666 64.0344 7.93666ZM63.5726 17.6432C65.3358 18.0901 66.9807 19.6086 66.9807 21.358C66.9807 22.7711 65.7916 23.8535 64.2159 23.8535C62.5278 23.8535 61.3016 22.4604 61.3016 20.9712C61.3016 19.4831 62.11 18.015 63.5726 17.6432Z" fill="white"/>
<path d="M30.6623 15.3312C30.6623 6.86286 23.7985 0 15.3312 0C6.86463 0 0 6.86286 0 15.3312C0 23.7971 6.86472 30.6616 15.3312 30.6616C23.7984 30.6616 30.6623 23.7971 30.6623 15.3312ZM13.628 22.7132C13.628 25.849 11.0858 28.3899 7.95028 28.3899V22.7132V9.08447C7.95028 5.94791 10.4933 3.40808 13.628 3.40808H18.1702H18.1707H23.8489C23.8489 6.54146 21.306 9.08447 18.1707 9.08447H13.6279V13.6281H17.0347H17.0355H22.7132C22.7132 16.7646 20.171 19.3062 17.0355 19.3062H13.6279V22.7132H13.628Z" fill="white"/>
</svg>
