<svg width="24" height="24" viewBox="0 0 24 24" fill="none" xmlns="http://www.w3.org/2000/svg">
<path fill-rule="evenodd" clip-rule="evenodd" d="M12 22.3099C17.694 22.3099 22.3099 17.694 22.3099 12C22.3099 6.30602 17.694 1.69014 12 1.69014C6.30602 1.69014 1.69014 6.30602 1.69014 12C1.69014 17.694 6.30602 22.3099 12 22.3099ZM12 24C18.6274 24 24 18.6274 24 12C24 5.37258 18.6274 0 12 0C5.37258 0 0 5.37258 0 12C0 18.6274 5.37258 24 12 24Z" fill="url(#paint0_linear)"/>
<mask id="mask0" mask-type="alpha" maskUnits="userSpaceOnUse" x="3" y="3" width="18" height="18">
<path d="M20.3076 12C20.3076 16.5882 16.5882 20.3076 12 20.3076C7.41174 20.3076 3.69226 16.5882 3.69226 12C3.69226 7.41174 7.41174 3.69226 12 3.69226C16.5882 3.69226 20.3076 7.41174 20.3076 12Z" fill="#C4C4C4"/>
</mask>
<g mask="url(#mask0)">
<path d="M5.53845 17.8462C5.53845 16.1469 7.06105 14.7693 8.93926 14.7693H15.0607C16.9389 14.7693 18.4615 16.1469 18.4615 17.8462V21.2308H5.53845V17.8462Z" fill="#F2C94C"/>
<path fill-rule="evenodd" clip-rule="evenodd" d="M12 12.2485C13.5686 12.2485 14.8403 11.1041 14.8403 9.6923C14.8403 8.28054 13.5686 7.13609 12 7.13609C10.4314 7.13609 9.15979 8.28054 9.15979 9.6923C9.15979 11.1041 10.4314 12.2485 12 12.2485ZM12 13.8461C14.549 13.8461 16.6154 11.9864 16.6154 9.6923C16.6154 7.39819 14.549 5.53845 12 5.53845C9.45102 5.53845 7.38464 7.39819 7.38464 9.6923C7.38464 11.9864 9.45102 13.8461 12 13.8461Z" fill="url(#paint1_linear)"/>
</g>
<defs>
<linearGradient id="paint0_linear" x1="24" y1="-6.29425e-06" x2="6.87567" y2="2.85405" gradientUnits="userSpaceOnUse">
<stop stop-color="#67E799"/>
<stop offset="1" stop-color="#4AD07E"/>
</linearGradient>
<linearGradient id="paint1_linear" x1="16.6154" y1="5.53845" x2="10.0706" y2="6.75045" gradientUnits="userSpaceOnUse">
<stop stop-color="#67E799"/>
<stop offset="1" stop-color="#4AD07E"/>
</linearGradient>
</defs>
</svg>
