<svg width="23" height="24" viewBox="0 0 23 24" fill="none" xmlns="http://www.w3.org/2000/svg">
<path fill-rule="evenodd" clip-rule="evenodd" d="M12.1598 12.7775C15.3086 12.7775 17.8612 10.2803 17.8612 7.2C17.8612 4.11965 15.3086 1.62254 12.1598 1.62254C9.011 1.62254 6.4584 4.11965 6.4584 7.2C6.4584 10.2803 9.011 12.7775 12.1598 12.7775ZM12.1598 14.4C16.2246 14.4 19.5198 11.1764 19.5198 7.2C19.5198 3.22355 16.2246 0 12.1598 0C8.09499 0 4.7998 3.22355 4.7998 7.2C4.7998 11.1764 8.09499 14.4 12.1598 14.4Z" fill="url(#paint0_linear)"/>
<path d="M12.194 10.56C12.0763 10.56 11.979 10.5177 11.9021 10.433C11.8251 10.3531 11.7866 10.2544 11.7866 10.1369V9.72085C11.5241 9.70204 11.2911 9.65974 11.0874 9.59392C10.8883 9.52341 10.7185 9.45054 10.5782 9.37533C10.4515 9.30951 10.3723 9.21785 10.3406 9.10032C10.3089 8.9781 10.3135 8.86292 10.3542 8.7548C10.3995 8.64198 10.4719 8.56206 10.5714 8.51506C10.6755 8.46334 10.7977 8.47275 10.938 8.54326C11.0467 8.60437 11.1983 8.66784 11.3929 8.73365C11.5875 8.79476 11.8251 8.82532 12.1057 8.82532C12.418 8.82532 12.6398 8.77361 12.771 8.67019C12.9023 8.56677 12.9679 8.43749 12.9679 8.28236C12.9679 8.15543 12.9227 8.04966 12.8321 7.96504C12.7416 7.88043 12.5787 7.81226 12.3433 7.76055L11.5966 7.59132C10.7728 7.40328 10.361 6.94729 10.361 6.22334C10.361 5.82847 10.49 5.4947 10.7479 5.22204C11.0059 4.94939 11.3522 4.7778 11.7866 4.70729V4.26305C11.7866 4.14553 11.8251 4.04681 11.9021 3.96689C11.979 3.88227 12.0763 3.83997 12.194 3.83997C12.3071 3.83997 12.4022 3.88227 12.4791 3.96689C12.5561 4.04681 12.5945 4.14553 12.5945 4.26305V4.68614C12.762 4.70964 12.934 4.75195 13.1105 4.81306C13.2915 4.87417 13.4499 4.95409 13.5857 5.05281C13.6943 5.12332 13.76 5.21499 13.7826 5.32781C13.8097 5.43594 13.8007 5.53936 13.7554 5.63808C13.7102 5.7368 13.6355 5.80731 13.5314 5.84962C13.4318 5.88723 13.3096 5.86842 13.1648 5.79321C13.0426 5.7321 12.9091 5.68039 12.7642 5.63808C12.6194 5.59577 12.4406 5.57461 12.2279 5.57461C11.9654 5.57461 11.7595 5.63103 11.6101 5.74385C11.4608 5.85667 11.3861 6.0024 11.3861 6.18104C11.3861 6.30796 11.4291 6.41373 11.5151 6.49835C11.6056 6.57827 11.7618 6.64408 11.9835 6.69579L12.7371 6.86502C13.1671 6.96374 13.4839 7.12593 13.6875 7.35157C13.8957 7.57252 13.9998 7.85692 13.9998 8.20479C13.9998 8.60437 13.8686 8.93344 13.6061 9.19199C13.3481 9.45054 13.0109 9.61743 12.5945 9.69264V10.1369C12.5945 10.2544 12.5561 10.3531 12.4791 10.433C12.4022 10.5177 12.3071 10.56 12.194 10.56Z" fill="#F2C94C"/>
<path fill-rule="evenodd" clip-rule="evenodd" d="M0 13.4399H5.77568L5.93129 13.508C6.90321 13.9333 9.16586 15.0249 10.6542 16.1011C11.2963 16.0936 12.053 16.0614 12.8765 16.0264C13.1869 16.0132 13.5069 15.9996 13.8338 15.9867C15.562 15.9188 17.4739 15.8728 18.963 16.0594C19.6996 16.1517 20.4143 16.3095 20.9672 16.6009C21.5377 16.9016 22.08 17.4355 22.08 18.2761C22.08 18.9791 21.9048 19.5788 21.5517 20.0664C21.2057 20.5444 20.7396 20.8444 20.276 21.0472C19.8176 21.2478 19.3169 21.3722 18.859 21.4714C18.6882 21.5084 18.527 21.5413 18.3718 21.5729C18.083 21.6318 17.8148 21.6865 17.543 21.7558C16.8147 21.9417 15.3706 22.3706 13.9035 22.8063C13.6591 22.8789 13.4142 22.9516 13.1717 23.0235C12.3299 23.273 11.5231 23.5104 10.8985 23.6856C10.5869 23.773 10.3143 23.8467 10.1027 23.8991C9.99745 23.9251 9.90019 23.9477 9.81723 23.9643C9.75663 23.9763 9.63592 23.9999 9.51859 23.9999C9.39564 23.9999 9.29383 23.9726 9.25965 23.9633C9.20866 23.9495 9.1596 23.9329 9.11777 23.9178C9.03321 23.8871 8.93576 23.8467 8.83333 23.8019C8.62627 23.7113 8.35666 23.5842 8.04516 23.4323C7.41996 23.1275 6.5953 22.7079 5.70064 22.2447C3.90978 21.3175 1.8193 20.2059 0.440654 19.4651L0 19.2283V13.4399ZM1.64961 15.1241V18.2112C3.00418 18.9368 4.84715 19.9145 6.44671 20.7426C7.3379 21.204 8.14876 21.6165 8.75608 21.9126C9.06085 22.0612 9.30675 22.1768 9.48287 22.2538C9.51936 22.2698 9.55114 22.2833 9.57849 22.2947C9.61646 22.286 9.66148 22.2753 9.71386 22.2624C9.90126 22.216 10.1551 22.1475 10.4615 22.0616C11.0731 21.89 11.8692 21.6559 12.7118 21.4061C12.9506 21.3353 13.1935 21.2632 13.437 21.1909C14.8975 20.7571 16.3809 20.3165 17.143 20.122C17.4513 20.0433 17.7889 19.9743 18.1018 19.9103C18.2472 19.8806 18.3873 19.8519 18.5167 19.8239C18.9552 19.7289 19.3239 19.6315 19.6262 19.4992C19.9234 19.3692 20.1093 19.2254 20.2251 19.0654C20.3339 18.9151 20.4304 18.6827 20.4304 18.2761C20.4304 18.2697 20.4305 18.2667 20.4297 18.264C20.4288 18.2612 20.4269 18.2587 20.4226 18.253C20.4051 18.2293 20.3496 18.1707 20.2105 18.0974C19.9205 17.9446 19.4389 17.8158 18.7621 17.731C17.8645 17.6185 16.7665 17.5985 15.6141 17.6182C15.7113 17.9751 15.7138 18.3341 15.6545 18.6605C15.5732 19.1084 15.3707 19.5263 15.0898 19.845C14.8186 20.1526 14.3954 20.4496 13.8655 20.4496H8.21452V18.7654H13.8154C13.8265 18.7567 13.8428 18.7421 13.8637 18.7184C13.936 18.6364 14.0052 18.5041 14.0325 18.3535C14.0588 18.209 14.0415 18.0796 13.9878 17.9728C13.9474 17.8927 13.8656 17.7834 13.6881 17.678C13.4489 17.6877 13.2107 17.6979 12.9753 17.7079C12.0246 17.7484 11.1206 17.7868 10.388 17.7868H10.113L9.89308 17.6184C8.64867 16.6656 6.50562 15.6035 5.4352 15.1241H1.64961ZM13.7981 18.7768C13.7981 18.7767 13.7993 18.776 13.8018 18.7749C13.7994 18.7764 13.7981 18.7769 13.7981 18.7768Z" fill="url(#paint1_linear)"/>
<defs>
<linearGradient id="paint0_linear" x1="19.5198" y1="-3.77655e-06" x2="9.02963" y2="1.78721" gradientUnits="userSpaceOnUse">
<stop stop-color="#67E799"/>
<stop offset="1" stop-color="#4AD07E"/>
</linearGradient>
<linearGradient id="paint1_linear" x1="22.08" y1="13.4399" x2="7.64144" y2="18.4716" gradientUnits="userSpaceOnUse">
<stop stop-color="#67E799"/>
<stop offset="1" stop-color="#4AD07E"/>
</linearGradient>
</defs>
</svg>
