<svg width="18" height="24" viewBox="0 0 18 24" fill="none" xmlns="http://www.w3.org/2000/svg">
<path d="M8.96936 13.9154C7.98213 13.9154 7.17896 14.7185 7.17896 15.7058V22.2096C7.17896 23.1969 7.98213 24 8.96936 24C9.95658 24 10.7598 23.1969 10.7598 22.2096V15.7058C10.7598 14.7185 9.95658 13.9154 8.96936 13.9154Z" fill="url(#paint0_linear)"/>
<path d="M9.41022 4.1945C10.4461 3.94964 11.0873 2.91143 10.8424 1.87558C10.5976 0.839737 9.55937 0.198513 8.52352 0.443369C7.48767 0.688224 6.84644 1.72644 7.0913 2.76228C7.33616 3.79813 8.37437 4.43935 9.41022 4.1945Z" fill="#F2C94C"/>
<path d="M5.65841 2.3223C5.65841 1.9636 5.39361 1.63074 5.03492 1.63074H3.31558C2.93365 1.63074 2.62402 1.94036 2.62402 2.3223C2.62402 2.70424 2.93365 3.01386 3.31558 3.01386H5.03492C5.39361 3.01386 5.65841 2.68099 5.65841 2.3223Z" fill="url(#paint1_linear)"/>
<path d="M12.9035 1.63074C12.5448 1.63074 12.28 1.9636 12.28 2.3223C12.28 2.68099 12.5448 3.01386 12.9035 3.01386H14.6228C15.0047 3.01386 15.3144 2.70424 15.3144 2.3223C15.3144 1.94036 15.0047 1.63074 14.6228 1.63074H12.9035Z" fill="url(#paint2_linear)"/>
<mask id="mask0" mask-type="alpha" maskUnits="userSpaceOnUse" x="0" y="3" width="18" height="18">
<path d="M17.4507 12C17.4507 16.6672 13.6672 20.4507 9.00002 20.4507C4.33283 20.4507 0.549316 16.6672 0.549316 12C0.549316 7.33283 4.33283 3.54932 9.00002 3.54932C13.6672 3.54932 17.4507 7.33283 17.4507 12Z" fill="#C4C4C4"/>
</mask>
<g mask="url(#mask0)">
<path d="M10.385 5.63318H7.55324C5.49594 5.63318 3.82227 7.30689 3.82227 9.36415V19.0675L5.79566 20.1127V15.7059C5.79566 13.956 7.21931 12.5324 8.96919 12.5324C10.7191 12.5324 12.1427 13.956 12.1427 15.7059V20.6237L14.1161 19.4367V9.36415C14.1161 7.30685 12.4423 5.63318 10.385 5.63318Z" fill="url(#paint3_linear)"/>
</g>
<defs>
<linearGradient id="paint0_linear" x1="10.7598" y1="13.9154" x2="8.143" y2="14.0703" gradientUnits="userSpaceOnUse">
<stop stop-color="#67E799"/>
<stop offset="1" stop-color="#4AD07E"/>
</linearGradient>
<linearGradient id="paint1_linear" x1="5.65841" y1="1.63074" x2="3.69561" y2="2.34842" gradientUnits="userSpaceOnUse">
<stop stop-color="#67E799"/>
<stop offset="1" stop-color="#4AD07E"/>
</linearGradient>
<linearGradient id="paint2_linear" x1="15.3144" y1="1.63074" x2="13.3516" y2="2.3484" gradientUnits="userSpaceOnUse">
<stop stop-color="#67E799"/>
<stop offset="1" stop-color="#4AD07E"/>
</linearGradient>
<linearGradient id="paint3_linear" x1="14.1161" y1="5.63317" x2="6.66489" y2="6.48595" gradientUnits="userSpaceOnUse">
<stop stop-color="#67E799"/>
<stop offset="1" stop-color="#4AD07E"/>
</linearGradient>
</defs>
</svg>
