<svg width="40" height="40" viewBox="0 0 40 40" fill="none" xmlns="http://www.w3.org/2000/svg">
<circle cx="20" cy="20" r="20" fill="url(#paint0_linear)"/>
<path d="M29.7388 14.714L25.8888 16.8834V13.889C25.8888 13.5648 25.7601 13.2539 25.5309 13.0247C25.3016 12.7955 24.9908 12.6667 24.6666 12.6667H13.6666C13.0183 12.6667 12.3966 12.9243 11.9381 13.3827C11.4797 13.8411 11.2222 14.4629 11.2222 15.1112V24.889C11.2222 25.5373 11.4797 26.159 11.9381 26.6174C12.3966 27.0759 13.0183 27.3334 13.6666 27.3334H24.6666C24.9908 27.3334 25.3016 27.2046 25.5309 26.9754C25.7601 26.7462 25.8888 26.4353 25.8888 26.1112V23.1045L29.7388 25.274C29.8376 25.3385 29.9516 25.3759 30.0694 25.3824C30.1872 25.3889 30.3047 25.3643 30.41 25.3111C30.5153 25.2578 30.6047 25.1778 30.6692 25.079C30.7338 24.9802 30.7712 24.8662 30.7777 24.7484V15.2334C30.7702 15.1161 30.732 15.0029 30.6671 14.9049C30.6021 14.807 30.5126 14.7278 30.4075 14.6752C30.3024 14.6227 30.1853 14.5986 30.068 14.6054C29.9507 14.6122 29.8372 14.6496 29.7388 14.714Z" fill="white"/>
<defs>
<linearGradient id="paint0_linear" x1="0" y1="40" x2="40.6709" y2="0.694234" gradientUnits="userSpaceOnUse">
<stop stop-color="#E15050"/>
<stop offset="1" stop-color="#F97474"/>
</linearGradient>
</defs>
</svg>
